HIERARCHY
ROOT Hips
{
	OFFSET -0.001795 -0.223333 0.028219
	CHANNELS 6 Xposition Yposition Zposition Zrotation Yrotation Xrotation 
	JOINT LeftUpLeg
	{
		OFFSET 0.069520 -0.091406 -0.006815
		CHANNELS 3 Zrotation Yrotation Xrotation
		JOINT LeftLeg
		{
			OFFSET 0.034277 -0.375199 -0.004496
			CHANNELS 3 Zrotation Yrotation Xrotation
			JOINT LeftFoot
			{
				OFFSET -0.013596 -0.397961 -0.043693
				CHANNELS 3 Zrotation Yrotation Xrotation
				JOINT LeftToe
				{
					OFFSET 0.026358 -0.055791 0.119288
					CHANNELS 3 Zrotation Yrotation Xrotation
					End Site
					{
						OFFSET 0.000000 0.000000 0.000000
					}
				}
			}
		}
	}
	JOINT RightUpLeg
	{
		OFFSET -0.067670 -0.090522 -0.004320
		CHANNELS 3 Zrotation Yrotation Xrotation
		JOINT RightLeg
		{
			OFFSET -0.038290 -0.382569 -0.008850
			CHANNELS 3 Zrotation Yrotation Xrotation
			JOINT RightFoot
			{
				OFFSET 0.015774 -0.398415 -0.042312
				CHANNELS 3 Zrotation Yrotation Xrotation
				JOINT RightToe
				{
					OFFSET -0.025372 -0.048144 0.123348
					CHANNELS 3 Zrotation Yrotation Xrotation
					End Site
					{
						OFFSET 0.000000 0.000000 0.000000
					}
				}
			}
		}
	}
	JOINT Spine
	{
		OFFSET -0.002533 0.108963 -0.026696
		CHANNELS 3 Zrotation Yrotation Xrotation
		JOINT Spine1
		{
			OFFSET 0.005487 0.135180 0.001092
			CHANNELS 3 Zrotation Yrotation Xrotation
			JOINT Spine2
			{
				OFFSET 0.001457 0.052922 0.025425
				CHANNELS 3 Zrotation Yrotation Xrotation
				JOINT Neck
				{
					OFFSET -0.002778 0.213870 -0.042857
					CHANNELS 3 Zrotation Yrotation Xrotation
					JOINT Head
					{
						OFFSET 0.005152 0.064970 0.051349
						CHANNELS 3 Zrotation Yrotation Xrotation
						End Site
						{
							OFFSET 0.000000 0.000000 0.000000
						}
					}
				}
				JOINT LeftShoulder
				{
					OFFSET 0.078845 0.121749 -0.034090
					CHANNELS 3 Zrotation Yrotation Xrotation
					JOINT LeftArm
					{
						OFFSET 0.090977 0.030469 -0.008868
						CHANNELS 3 Zrotation Yrotation Xrotation
						JOINT LeftForeArm
						{
							OFFSET 0.259612 -0.012772 -0.027456
							CHANNELS 3 Zrotation Yrotation Xrotation
							JOINT LeftHand
							{
								OFFSET 0.249234 0.008986 -0.001171
								CHANNELS 3 Zrotation Yrotation Xrotation
								End Site
								{
									OFFSET 0.000000 0.000000 0.000000
								}
							}
						}
					}
				}
				JOINT RightShoulder
				{
					OFFSET -0.081759 0.118833 -0.038615
					CHANNELS 3 Zrotation Yrotation Xrotation
					JOINT RightArm
					{
						OFFSET -0.096012 0.032551 -0.009143
						CHANNELS 3 Zrotation Yrotation Xrotation
						JOINT RightForeArm
						{
							OFFSET -0.253742 -0.013329 -0.021401
							CHANNELS 3 Zrotation Yrotation Xrotation
							JOINT RightHand
							{
								OFFSET -0.255298 0.007772 -0.005559
								CHANNELS 3 Zrotation Yrotation Xrotation
								End Site
								{
									OFFSET 0.000000 0.000000 0.000000
								}
							}
						}
					}
				}
			}
		}
	}
}
MOTION
Frames: 11
Frame Time: 0.050000
-0.912494 0.971282 0.893259 1.144515 42.159005 1.543674 1.683606 -2.154605 -17.508425 -16.536591 -3.172678 45.191497 7.266763 18.290852 12.377367 0.000000 0.000000 0.000000 3.826316 0.736012 -5.295714 -4.176557 -1.243933 24.080930 7.136737 14.509374 6.234545 0.000000 0.000000 0.000000 1.753123 -0.907219 10.530653 -1.545181 0.963397 -31.136441 -3.547091 8.413435 29.873278 13.112119 1.076610 -33.178266 0.000000 0.000000 0.000000 -11.947763 -6.512882 -5.169601 -55.038554 -8.862299 -4.509165 -8.354499 -37.859328 -0.053105 0.000000 0.000000 0.000000 28.854970 -12.884115 2.223766 54.233971 19.394494 -1.241157 5.378562 36.309595 6.484502 0.000000 0.000000 0.000000 
-0.970087 0.963404 0.858459 0.481453 41.576889 0.505345 2.004551 -1.773593 -15.612201 -21.535359 -1.747164 48.884576 7.288986 18.337560 14.009215 0.000000 0.000000 0.000000 6.147890 1.079940 -6.968377 -5.205048 -0.687843 23.497832 6.509966 13.361103 5.963057 0.000000 0.000000 0.000000 2.825191 -1.208030 11.746548 -0.724330 0.991831 -29.956332 -4.510724 8.671489 28.368641 13.342738 0.789421 -32.614126 0.000000 0.000000 0.000000 -11.948894 -6.392534 -5.031179 -54.234159 -8.197356 -4.551178 -8.933615 -38.531568 0.167166 0.000000 0.000000 0.000000 28.546156 -12.586763 1.944171 53.804740 18.599785 -1.236807 6.091206 36.172314 6.463437 0.000000 0.000000 0.000000 
-1.026370 0.956923 0.823595 -0.379682 41.528510 0.041907 1.664225 -1.421741 -13.445831 -24.054605 -0.925844 50.549963 7.570472 18.176951 12.798158 0.000000 0.000000 0.000000 7.187645 1.360613 -9.107484 -4.433637 -1.051212 24.175335 5.341518 11.429523 3.842888 0.000000 0.000000 0.000000 4.052263 -1.436019 12.075239 -1.415235 1.169453 -29.072213 -4.011588 7.108900 28.068908 12.822751 0.949328 -33.622835 0.000000 0.000000 0.000000 -13.108565 -6.090931 -5.218655 -53.173050 -7.230867 -4.673326 -7.592216 -39.181625 0.065535 0.000000 0.000000 0.000000 28.587542 -11.974949 1.763768 53.885840 17.991541 -1.402801 2.832563 37.562194 5.696736 0.000000 0.000000 0.000000 
-1.081685 0.952236 0.788604 -0.700607 42.768017 -0.921893 -1.060930 -0.830656 -9.028522 -20.201886 -2.316919 47.124439 5.606650 14.442125 9.450885 0.000000 0.000000 0.000000 7.801547 1.505964 -10.230799 -4.745787 -1.178077 24.875716 6.358227 13.534864 3.180869 0.000000 0.000000 0.000000 4.562501 -1.753813 13.392635 -1.226332 1.109331 -29.720978 -3.909163 6.279864 28.903070 12.520183 1.301203 -35.435939 0.000000 0.000000 0.000000 -14.021043 -7.560912 -4.947489 -52.140914 -6.967882 -4.431357 -6.865753 -39.938603 -0.115619 0.000000 0.000000 0.000000 30.504349 -12.365365 1.791514 51.125474 17.970969 -2.256537 2.917125 39.177229 5.941091 0.000000 0.000000 0.000000 
-1.136341 0.950435 0.753894 -0.390756 44.441407 -1.642764 -3.134344 -0.572132 -6.897358 -14.348980 -3.577430 40.803731 4.202418 11.597683 7.287429 0.000000 0.000000 0.000000 7.335649 1.593205 -12.776550 -4.377402 -2.063047 27.549613 6.964814 14.374226 3.404465 0.000000 0.000000 0.000000 4.130442 -1.773026 13.827887 -0.910077 1.236641 -28.166143 -5.207167 4.411784 27.945465 14.018678 0.177190 -33.960600 0.000000 0.000000 0.000000 -14.679332 -6.218549 -5.677957 -51.617043 -8.182085 -3.632148 -6.132731 -38.162260 -0.206235 0.000000 0.000000 0.000000 30.604653 -12.071619 1.840828 52.253781 18.307373 -1.934929 1.712241 37.209327 5.104104 0.000000 0.000000 0.000000 
-1.191293 0.949532 0.719391 -0.423174 46.613847 -2.200065 -3.979791 -0.701394 -7.707453 -9.271438 -4.067211 34.702077 3.367060 8.331215 3.581512 0.000000 0.000000 0.000000 5.851918 1.384782 -13.927981 -4.579047 -3.182222 31.147830 8.203047 16.613931 2.855913 0.000000 0.000000 0.000000 3.640516 -2.133158 15.793980 -1.055122 1.139905 -29.357556 -4.371315 5.074723 28.462317 13.861762 0.894074 -36.161848 0.000000 0.000000 0.000000 -15.678848 -9.387834 -5.332315 -49.570718 -8.140136 -2.910377 -5.092472 -36.761260 -0.597704 0.000000 0.000000 0.000000 29.925628 -12.962263 1.625974 53.488034 17.697693 -1.937399 1.844523 35.186783 4.818528 0.000000 0.000000 0.000000 
-1.245614 0.949427 0.684826 0.190430 46.500073 -2.127500 -3.638843 -1.087022 -10.126273 -9.636953 -3.257512 31.638081 4.644470 10.277108 3.316551 0.000000 0.000000 0.000000 4.492792 1.159544 -14.962626 -9.269900 -3.972970 41.984921 8.045636 16.894081 1.595515 0.000000 0.000000 0.000000 3.094016 -2.081112 16.037701 -1.940205 1.282113 -29.202336 -2.759046 5.479562 29.046051 11.962828 1.981100 -36.754492 0.000000 0.000000 0.000000 -16.474615 -9.524568 -5.858514 -50.000495 -8.296087 -2.734247 -4.406963 -36.567703 -0.835459 0.000000 0.000000 0.000000 28.529991 -11.526338 2.699324 54.279776 18.252957 -1.509199 2.835275 34.928883 5.007141 0.000000 0.000000 0.000000 
-1.299117 0.948751 0.650203 1.983440 47.037721 -1.593822 -4.275877 -1.716620 -13.098417 -9.842569 -2.920381 29.919921 4.235130 9.824580 3.366564 0.000000 0.000000 0.000000 2.621972 0.824936 -11.765239 -13.436444 -4.226377 49.135554 10.803627 21.262708 4.789051 0.000000 0.000000 0.000000 1.727551 -2.095087 17.118256 -2.959116 1.310040 -29.990184 -1.435091 7.075275 29.844733 10.891809 2.981030 -39.355947 0.000000 0.000000 0.000000 -16.055629 -10.125238 -6.073160 -49.775742 -8.040497 -2.740418 -5.687882 -35.499644 -0.596053 0.000000 0.000000 0.000000 28.694942 -11.503299 3.622626 54.677036 19.336323 -1.289579 2.188045 34.049123 4.722255 0.000000 0.000000 0.000000 
-1.352229 0.946707 0.615629 3.122181 49.086300 -1.095098 -5.068373 -2.362058 -15.468338 -7.801384 -2.835488 26.584172 2.201414 7.519723 4.598911 0.000000 0.000000 0.000000 2.870590 0.634581 -5.881259 -17.534222 -4.124846 52.854089 15.864752 25.607751 13.879941 0.000000 0.000000 0.000000 1.256162 -1.909353 16.392263 -4.487473 1.677705 -28.674355 -0.659816 7.457894 29.456700 9.736314 3.773318 -39.155081 0.000000 0.000000 0.000000 -16.576369 -11.634678 -6.351289 -49.490282 -6.773289 -2.828149 -4.145518 -33.718697 -1.105221 0.000000 0.000000 0.000000 29.959708 -10.939339 5.306844 54.597064 22.113727 -0.553193 0.397645 32.063555 3.764865 0.000000 0.000000 0.000000 
-1.405888 0.944192 0.579726 4.377927 49.034214 -0.013514 -5.870014 -3.377522 -18.647372 -4.976120 -2.224319 21.326471 -0.473362 7.220880 9.529562 0.000000 0.000000 0.000000 3.329972 0.082269 0.093991 -18.872850 -2.951117 50.722396 19.531613 27.199839 21.430336 0.000000 0.000000 0.000000 0.111664 -1.561043 15.468640 -4.660533 1.707642 -28.593365 -0.176260 9.540585 30.625252 10.464889 3.803031 -39.073759 0.000000 0.000000 0.000000 -16.212029 -11.709946 -6.855550 -49.994663 -5.435060 -3.469649 -3.957012 -32.465463 -1.272740 0.000000 0.000000 0.000000 31.174268 -11.794948 6.040745 54.304038 25.644947 0.431283 -0.270317 29.841533 3.235969 0.000000 0.000000 0.000000 
-1.459676 0.940491 0.542483 4.469635 49.573382 0.827578 -5.678338 -4.333033 -21.666245 -4.261357 -1.672983 17.758221 -1.780165 8.682925 14.063164 0.000000 0.000000 0.000000 5.039578 -0.602581 4.453548 -17.693000 -1.802418 43.521426 18.482544 28.690225 17.686909 0.000000 0.000000 0.000000 -0.095605 -1.516292 15.305304 -5.706116 1.935809 -27.734698 0.413664 9.617524 29.159823 10.956362 3.567541 -39.077214 0.000000 0.000000 0.000000 -16.977700 -11.740232 -7.284040 -49.480430 -2.960376 -4.121474 -4.478944 -32.699501 -1.076513 0.000000 0.000000 0.000000 29.823665 -10.172488 6.820047 55.032029 26.233465 1.439505 -0.922309 29.144080 2.797094 0.000000 0.000000 0.000000 
